<svg width="165" height="46" viewBox="0 0 165 46" fill="none" xmlns="http://www.w3.org/2000/svg">
<path d="M22.704 26.216C22.704 28.872 21.424 31.096 18.864 32.888C16.336 34.68 13.392 35.576 10.032 35.576C7.408 35.576 5.184 35.016 3.36 33.896C1.568 32.776 0.672 31.704 0.672 30.68C1.184 29.432 2.16 28.088 3.6 26.648C5.04 25.208 6.368 24.456 7.584 24.392C8.384 24.744 9.12 25.624 9.792 27.032C10.496 28.408 11.056 30.008 11.472 31.832C13.2 31.768 14.064 30.792 14.064 28.904C14.064 27.656 13.584 26.136 12.624 24.344C11.696 22.52 10.672 20.824 9.552 19.256C8.432 17.688 7.392 15.944 6.432 14.024C5.504 12.104 5.04 10.424 5.04 8.984C5.04 6.616 6.128 4.68 8.304 3.176C10.48 1.672 12.896 0.919998 15.552 0.919998C18.24 0.919998 20.32 1.496 21.792 2.648C23.296 3.8 24.048 5.128 24.048 6.632C24.048 7.88 23.792 8.888 23.28 9.656C22.768 10.392 22.352 10.968 22.032 11.384C21.744 11.768 21.344 12.184 20.832 12.632C19.872 13.464 19.136 14.072 18.624 14.456L17.904 14.984C19.792 17.32 21.216 20.04 22.176 23.144C22.528 24.264 22.704 25.288 22.704 26.216ZM20.208 6.968C20.208 5.464 19.248 4.712 17.328 4.712C16.208 4.712 15.296 4.952 14.592 5.432C13.92 5.912 13.584 6.52 13.584 7.256C13.584 7.96 13.872 8.824 14.448 9.848C15.056 10.872 15.536 11.592 15.888 12.008C16.656 11.624 17.568 10.92 18.624 9.896C19.68 8.872 20.208 7.896 20.208 6.968ZM37.287 17C37.287 18.408 36.887 20.6 36.087 23.576C35.287 26.52 34.887 28.44 34.887 29.336C34.887 30.232 35.063 30.68 35.415 30.68C35.767 30.68 36.407 30.52 37.335 30.2L37.767 30.008L38.631 32.408C37.543 33.24 36.183 33.976 34.551 34.616C32.951 35.256 31.495 35.576 30.183 35.576C28.871 35.576 27.831 35.208 27.063 34.472C26.327 33.736 25.959 32.68 25.959 31.304C25.959 29.896 26.343 27.768 27.111 24.92C27.911 22.04 28.311 20.216 28.311 19.448C28.311 18.264 27.895 17.144 27.063 16.088L26.679 15.56L26.823 14.744C28.487 14.232 31.719 13.976 36.519 13.976C37.031 14.552 37.287 15.56 37.287 17ZM33.687 10.232C32.247 10.232 31.111 9.848 30.279 9.08C29.479 8.312 29.079 7.336 29.079 6.152C29.079 4.936 29.575 3.928 30.567 3.128C31.591 2.296 32.823 1.88 34.263 1.88C35.703 1.88 36.823 2.216 37.623 2.888C38.423 3.56 38.823 4.504 38.823 5.72C38.823 6.936 38.327 7.992 37.335 8.888C36.375 9.784 35.159 10.232 33.687 10.232ZM52.2536 32.936C50.0136 34.152 48.0136 34.76 46.2536 34.76C44.5256 34.76 43.0696 34.072 41.8856 32.696C40.7336 31.288 40.1576 29.208 40.1576 26.456C40.1576 22.776 41.1496 19.736 43.1336 17.336C45.1496 14.936 47.5496 13.736 50.3336 13.736C51.6776 13.736 53.1976 14.104 54.8936 14.84C56.8776 14.232 59.1336 13.928 61.6616 13.928H62.4776C62.6376 14.248 62.7176 14.968 62.7176 16.088C62.7176 17.176 62.5096 19.336 62.0936 22.568C61.7096 25.8 61.2776 28.504 60.7976 30.68C59.7736 35.32 58.1736 38.984 55.9976 41.672C53.8536 44.392 51.1496 45.752 47.8856 45.752C46.2856 45.752 44.9736 45.4 43.9496 44.696C42.9576 43.992 42.4616 43.096 42.4616 42.008C42.4616 40.92 42.7176 40.008 43.2296 39.272C43.7736 38.568 44.5416 37.976 45.5336 37.496C47.2296 36.664 49.3096 35.976 51.7736 35.432L52.2536 32.936ZM52.5416 17.624C51.4216 17.624 50.5576 18.584 49.9496 20.504C49.3736 22.424 49.0856 24.504 49.0856 26.744C49.0856 28.984 49.6136 30.104 50.6696 30.104C51.1176 30.104 51.7736 29.88 52.6376 29.432C52.8936 26.84 53.3096 23 53.8856 17.912C53.4056 17.72 52.9576 17.624 52.5416 17.624ZM47.0696 42.2C47.6776 42.2 48.3656 41.896 49.1336 41.288C49.9336 40.68 50.5896 39.688 51.1016 38.312C47.6136 38.92 45.8696 39.848 45.8696 41.096C45.9336 41.832 46.3336 42.2 47.0696 42.2ZM65.6366 35.288H64.8206C64.8206 33.304 65.2686 30.296 66.1646 26.264C67.0926 22.232 67.5566 19.912 67.5566 19.304C67.5566 18.696 67.4126 18.104 67.1246 17.528C66.8366 16.952 66.5486 16.52 66.2606 16.232L65.8286 15.8L65.9246 15.08C67.8126 14.472 71.1086 14.168 75.8126 14.168C76.1326 14.904 76.3566 15.672 76.4846 16.472C79.3966 14.68 81.8446 13.784 83.8286 13.784C85.1726 13.784 86.2286 14.232 86.9966 15.128C87.7646 15.992 88.1486 17.048 88.1486 18.296C88.1486 19.512 87.7966 21.48 87.0926 24.2C86.3886 26.92 86.0366 28.696 86.0366 29.528C86.0366 30.328 86.1486 30.728 86.3726 30.728L88.9166 30.056L89.7806 32.456C88.7566 33.224 87.4126 33.944 85.7486 34.616C84.1166 35.256 82.6126 35.576 81.2366 35.576C78.5166 35.576 77.1566 34.168 77.1566 31.352C77.1566 30.136 77.4926 28.152 78.1646 25.4C78.8366 22.648 79.1726 20.936 79.1726 20.264C79.1726 19.56 78.9486 19.208 78.5006 19.208C77.9246 19.208 77.1566 19.528 76.1966 20.168C76.0686 20.744 75.7486 22.136 75.2366 24.344C74.2126 28.984 73.7006 32.328 73.7006 34.376C72.1326 34.984 69.4446 35.288 65.6366 35.288ZM108.352 35.576C105.856 35.576 103.888 34.792 102.448 33.224C101.008 31.624 100.288 29.384 100.288 26.504C100.288 22.984 101.328 20.008 103.408 17.576C105.488 15.112 108.224 13.88 111.616 13.88L113.776 14.072C114.544 13.848 115.264 13.736 115.936 13.736C117.536 13.736 118.672 14.28 119.344 15.368C120.048 16.456 120.448 18.008 120.544 20.024C121.888 19.96 123.168 19.752 124.384 19.4L125.056 19.208C125.28 19.432 125.44 20.104 125.536 21.224L125.584 21.752C124.144 22.488 122.384 23.064 120.304 23.48C119.6 26.872 118.208 29.736 116.128 32.072C114.048 34.408 111.456 35.576 108.352 35.576ZM109.312 26.312C109.312 29.288 110.064 30.776 111.568 30.776C112.624 30.776 113.696 30.104 114.784 28.76C115.904 27.416 116.672 25.784 117.088 23.864C113.824 23.864 112.192 22.296 112.192 19.16C112.192 18.616 112.24 18.056 112.336 17.48C112.016 17.48 111.776 17.528 111.616 17.624C111.072 18.2 110.544 19.368 110.032 21.128C109.552 22.856 109.312 24.584 109.312 26.312ZM121.961 31.112C121.961 29.768 122.377 27.56 123.209 24.488C124.073 21.416 124.505 19.528 124.505 18.824C124.505 18.12 123.929 17.096 122.777 15.752L122.873 15.032C125.785 14.392 129.193 14.072 133.097 14.072C133.353 14.616 133.481 15.48 133.481 16.664C133.481 17.848 133.033 20.088 132.137 23.384C131.273 26.68 130.841 28.632 130.841 29.24C130.841 30.072 131.241 30.488 132.041 30.488C132.585 30.488 133.273 30.28 134.105 29.864C134.201 29.352 134.489 28.008 134.969 25.832C136.089 21 136.649 17.384 136.649 14.984C138.121 14.344 140.633 14.024 144.185 14.024H145.481C145.481 15.464 145.049 18.28 144.185 22.472C143.353 26.664 142.921 29.08 142.889 29.72C142.889 30.36 143.033 30.68 143.321 30.68L145.673 30.056L146.537 32.456C145.609 33.192 144.265 33.896 142.505 34.568C140.745 35.24 139.193 35.576 137.849 35.576C135.865 35.576 134.633 34.776 134.153 33.176C131.497 34.776 128.953 35.576 126.521 35.576C123.481 35.576 121.961 34.088 121.961 31.112ZM164.153 18.008L160.025 17.672C158.745 23.4 158.041 26.728 157.913 27.656C157.817 28.584 157.769 29.352 157.769 29.96C157.769 30.536 157.961 30.824 158.345 30.824C158.793 30.824 159.641 30.536 160.889 29.96L162.041 32.264C161.017 33.192 159.721 33.976 158.153 34.616C156.585 35.256 155.065 35.576 153.593 35.576C152.153 35.576 151.001 35.208 150.137 34.472C149.273 33.704 148.841 32.632 148.841 31.256C148.841 29.88 149.241 27.672 150.041 24.632C150.841 21.592 151.369 19.336 151.625 17.864C150.857 17.928 149.721 18.04 148.217 18.2C148.089 17.528 148.025 16.904 148.025 16.328C148.025 15.72 148.105 15.048 148.265 14.312H152.105C152.137 13.896 152.153 12.504 152.153 10.136L152.057 8.168C155.161 7.144 158.121 6.632 160.937 6.632C161.161 7.144 161.273 8.04 161.273 9.32C161.273 10.568 161.065 12.232 160.649 14.312H164.969C164.969 15.624 164.697 16.856 164.153 18.008Z" fill="#440066"/>
</svg>
